<svg width="400" height="423" viewBox="0 0 400 423" fill="none" xmlns="http://www.w3.org/2000/svg">
    <path fill-rule="evenodd" clip-rule="evenodd" d="M210.177 317.003C210.059 318.987 210 320.987 210 323C210 355.716 225.711 384.763 250 403.007V423H150V403.007C174.289 384.763 190 355.716 190 323C190 320.987 189.941 318.987 189.823 317.003C173.545 350.169 139.439 373 100 373C44.7715 373 0 328.228 0 273C0 217.772 44.7715 173 100 173C116.598 173 132.252 177.044 146.03 184.201C118.343 166.417 100 135.351 100 100C100 44.7715 144.772 0 200 0C255.228 0 300 44.7715 300 100C300 135.351 281.657 166.417 253.97 184.201C267.748 177.044 283.402 173 300 173C355.228 173 400 217.772 400 273C400 328.228 355.228 373 300 373C260.561 373 226.455 350.169 210.177 317.003Z" fill="black"/>
</svg>
