<svg height="422" viewBox="0 0 400 422" fill="none" xmlns="http://www.w3.org/2000/svg">
    <path fill-rule="evenodd" clip-rule="evenodd" d="M200 0L372.5 172H372.381C389.493 189.945 400 214.246 400 241C400 296.228 355.228 341 300 341C263.681 341 231.885 321.639 214.369 292.675C211.528 301.948 210 311.796 210 322C210 354.716 225.711 383.763 250 402.007V422H150V402.007C174.289 383.763 190 354.716 190 322C190 311.796 188.472 301.948 185.631 292.675C168.115 321.639 136.319 341 100 341C44.7715 341 0 296.228 0 241C0 214.246 10.5066 189.945 27.6188 172H27.5L200 0Z" fill="black"/>
</svg>
