<svg width="947" height="960" viewBox="0 0 947 960" fill="none" xmlns="http://www.w3.org/2000/svg">
<path fill-rule="evenodd" clip-rule="evenodd" d="M174.36 272.918L24.7371 381.626C-2.07132 401.103 -8.01425 438.625 11.4632 465.434L352.379 934.664C371.856 961.472 409.378 967.415 436.187 947.938L635.415 803.19L469.335 857.153C416.81 874.219 360.394 845.474 343.328 792.949L174.36 272.918Z" fill="#7C7C7C"/>
<path fill-rule="evenodd" clip-rule="evenodd" d="M406.196 100.115L240.456 153.967C208.94 164.207 191.693 198.056 201.933 229.572L381.163 781.184C391.403 812.7 425.252 829.947 456.768 819.707L702.08 740H506.196C450.967 740 406.196 695.228 406.196 640V100.115Z" fill="#383838"/>
<rect x="446.392" width="500" height="700" rx="60" fill="#D60E26"/>
</svg>
