<svg width="986" height="660" viewBox="0 0 986 660" fill="none" xmlns="http://www.w3.org/2000/svg">
<path d="M0.325 155.2C0.325 127.467 6.325 102.8 18.325 81.2C30.325 59.3333 46.9917 42.4 68.325 30.4C89.925 18.1333 114.325 12 141.525 12C174.858 12 203.392 20.8 227.125 38.4C250.858 56 266.725 80 274.725 110.4H199.525C193.925 98.6667 185.925 89.7333 175.525 83.6C165.392 77.4667 153.792 74.4 140.725 74.4C119.658 74.4 102.592 81.7333 89.525 96.4C76.4583 111.067 69.925 130.667 69.925 155.2C69.925 179.733 76.4583 199.333 89.525 214C102.592 228.667 119.658 236 140.725 236C153.792 236 165.392 232.933 175.525 226.8C185.925 220.667 193.925 211.733 199.525 200H274.725C266.725 230.4 250.858 254.4 227.125 272C203.392 289.333 174.858 298 141.525 298C114.325 298 89.925 292 68.325 280C46.9917 267.733 30.325 250.8 18.325 229.2C6.325 207.6 0.325 182.933 0.325 155.2ZM303.013 184C303.013 161.067 307.279 140.933 315.813 123.6C324.613 106.267 336.479 92.9333 351.413 83.6C366.346 74.2667 383.013 69.6 401.413 69.6C417.146 69.6 430.879 72.8 442.613 79.2C454.613 85.6 463.813 94 470.213 104.4V72.8H538.613V296H470.213V264.4C463.546 274.8 454.213 283.2 442.213 289.6C430.479 296 416.746 299.2 401.013 299.2C382.879 299.2 366.346 294.533 351.413 285.2C336.479 275.6 324.613 262.133 315.813 244.8C307.279 227.2 303.013 206.933 303.013 184ZM470.213 184.4C470.213 167.333 465.413 153.867 455.813 144C446.479 134.133 435.013 129.2 421.413 129.2C407.813 129.2 396.213 134.133 386.613 144C377.279 153.6 372.613 166.933 372.613 184C372.613 201.067 377.279 214.667 386.613 224.8C396.213 234.667 407.813 239.6 421.413 239.6C435.013 239.6 446.479 234.667 455.813 224.8C465.413 214.933 470.213 201.467 470.213 184.4ZM654.497 110C662.497 97.7333 672.497 88.1333 684.497 81.2C696.497 74 709.83 70.4 724.497 70.4V142.8H705.697C688.63 142.8 675.83 146.533 667.297 154C658.764 161.2 654.497 174 654.497 192.4V296H586.097V72.8H654.497V110ZM749.591 184C749.591 161.067 753.857 140.933 762.391 123.6C771.191 106.267 783.057 92.9333 797.991 83.6C812.924 74.2667 829.591 69.6 847.991 69.6C862.657 69.6 875.991 72.6666 887.991 78.8C900.257 84.9333 909.857 93.2 916.791 103.6V-3.8147e-06H985.191V296H916.791V264C910.391 274.667 901.191 283.2 889.191 289.6C877.457 296 863.724 299.2 847.991 299.2C829.591 299.2 812.924 294.533 797.991 285.2C783.057 275.6 771.191 262.133 762.391 244.8C753.857 227.2 749.591 206.933 749.591 184ZM916.791 184.4C916.791 167.333 911.991 153.867 902.391 144C893.057 134.133 881.591 129.2 867.991 129.2C854.391 129.2 842.791 134.133 833.191 144C823.857 153.6 819.191 166.933 819.191 184C819.191 201.067 823.857 214.667 833.191 224.8C842.791 234.667 854.391 239.6 867.991 239.6C881.591 239.6 893.057 234.667 902.391 224.8C911.991 214.933 916.791 201.467 916.791 184.4Z" fill="white"/>
<path d="M267.203 375.2V656H198.803V540.4H92.4031V656H24.0031V375.2H92.4031V485.2H198.803V375.2H267.203ZM536.981 432.8V656H468.581V625.6C461.648 635.467 452.181 643.467 440.181 649.6C428.448 655.467 415.381 658.4 400.981 658.4C383.915 658.4 368.848 654.667 355.781 647.2C342.715 639.467 332.581 628.4 325.381 614C318.181 599.6 314.581 582.667 314.581 563.2V432.8H382.581V554C382.581 568.933 386.448 580.533 394.181 588.8C401.915 597.067 412.315 601.2 425.381 601.2C438.715 601.2 449.248 597.067 456.981 588.8C464.715 580.533 468.581 568.933 468.581 554V432.8H536.981ZM654.513 464.4C660.913 454 670.113 445.6 682.113 439.2C694.113 432.8 707.846 429.6 723.313 429.6C741.713 429.6 758.379 434.267 773.313 443.6C788.246 452.933 799.979 466.267 808.513 483.6C817.313 500.933 821.713 521.067 821.713 544C821.713 566.933 817.313 587.2 808.513 604.8C799.979 622.133 788.246 635.6 773.313 645.2C758.379 654.533 741.713 659.2 723.313 659.2C707.579 659.2 693.846 656.133 682.113 650C670.379 643.6 661.179 635.2 654.513 624.8V656H586.113V360H654.513V464.4ZM752.113 544C752.113 526.933 747.313 513.6 737.713 504C728.379 494.133 716.779 489.2 702.913 489.2C689.313 489.2 677.713 494.133 668.113 504C658.779 513.867 654.113 527.333 654.113 544.4C654.113 561.467 658.779 574.933 668.113 584.8C677.713 594.667 689.313 599.6 702.913 599.6C716.513 599.6 728.113 594.667 737.713 584.8C747.313 574.667 752.113 561.067 752.113 544Z" fill="white"/>
<circle cx="886" cy="616" r="40" fill="#D60E26"/>
</svg>
